<mxfile host="app.diagrams.net" modified="2023-12-23T02:48:30.998Z" agent="Mozilla/5.0 (Windows NT 10.0; Win64; x64; rv:121.0) Gecko/20100101 Firefox/121.0" etag="rk1iEF5xsPd0LkivrqXY" version="22.1.11" type="device">
  <diagram name="PÃ¡gina-1" id="4whpAJ8yVQLXmxnpnczF">
    <mxGraphModel dx="2021" dy="716" grid="1" gridSize="10" guides="1" tooltips="1" connect="1" arrows="1" fold="1" page="1" pageScale="1" pageWidth="827" pageHeight="1169" math="0" shadow="0">
      <root>
        <mxCell id="0" />
        <mxCell id="1" parent="0" />
        <mxCell id="3J7ZXyAR9tnkBYV8iA2I-1" value="" style="endArrow=classicThin;html=1;rounded=0;strokeWidth=4;startArrow=classicThin;startFill=1;endFill=1;fillColor=#e1d5e7;strokeColor=#5323A6;" edge="1" parent="1">
          <mxGeometry width="50" height="50" relative="1" as="geometry">
            <mxPoint x="40" y="280" as="sourcePoint" />
            <mxPoint x="800" y="280" as="targetPoint" />
          </mxGeometry>
        </mxCell>
        <mxCell id="3J7ZXyAR9tnkBYV8iA2I-2" value="" style="endArrow=none;html=1;rounded=0;strokeWidth=3;strokeColor=#007FFF;" edge="1" parent="1">
          <mxGeometry width="50" height="50" relative="1" as="geometry">
            <mxPoint x="40" y="560" as="sourcePoint" />
            <mxPoint x="40" y="360" as="targetPoint" />
          </mxGeometry>
        </mxCell>
        <mxCell id="3J7ZXyAR9tnkBYV8iA2I-3" value="" style="endArrow=none;html=1;rounded=0;strokeWidth=3;strokeColor=#007FFF;" edge="1" parent="1">
          <mxGeometry width="50" height="50" relative="1" as="geometry">
            <mxPoint x="840" y="560" as="sourcePoint" />
            <mxPoint x="40" y="560" as="targetPoint" />
          </mxGeometry>
        </mxCell>
        <mxCell id="3J7ZXyAR9tnkBYV8iA2I-4" value="" style="endArrow=none;html=1;rounded=0;strokeWidth=3;strokeColor=#007FFF;" edge="1" parent="1">
          <mxGeometry width="50" height="50" relative="1" as="geometry">
            <mxPoint x="840" y="560" as="sourcePoint" />
            <mxPoint x="840" y="360" as="targetPoint" />
          </mxGeometry>
        </mxCell>
        <mxCell id="3J7ZXyAR9tnkBYV8iA2I-5" value="" style="endArrow=none;html=1;rounded=0;strokeWidth=3;fillColor=#f8cecc;strokeColor=#b85450;" edge="1" parent="1">
          <mxGeometry width="50" height="50" relative="1" as="geometry">
            <mxPoint x="40" y="360" as="sourcePoint" />
            <mxPoint x="120" y="360" as="targetPoint" />
          </mxGeometry>
        </mxCell>
        <mxCell id="3J7ZXyAR9tnkBYV8iA2I-6" value="" style="endArrow=none;html=1;rounded=0;strokeWidth=3;fillColor=#f8cecc;strokeColor=#b85450;" edge="1" parent="1">
          <mxGeometry width="50" height="50" relative="1" as="geometry">
            <mxPoint x="200" y="360" as="sourcePoint" />
            <mxPoint x="280" y="360" as="targetPoint" />
          </mxGeometry>
        </mxCell>
        <mxCell id="3J7ZXyAR9tnkBYV8iA2I-7" value="" style="endArrow=none;html=1;rounded=0;strokeWidth=3;fillColor=#f8cecc;strokeColor=#b85450;" edge="1" parent="1">
          <mxGeometry width="50" height="50" relative="1" as="geometry">
            <mxPoint x="360" y="360" as="sourcePoint" />
            <mxPoint x="440" y="360" as="targetPoint" />
          </mxGeometry>
        </mxCell>
        <mxCell id="3J7ZXyAR9tnkBYV8iA2I-8" value="" style="endArrow=none;html=1;rounded=0;strokeWidth=3;fillColor=#f8cecc;strokeColor=#b85450;" edge="1" parent="1">
          <mxGeometry width="50" height="50" relative="1" as="geometry">
            <mxPoint x="520" y="360" as="sourcePoint" />
            <mxPoint x="600" y="360" as="targetPoint" />
          </mxGeometry>
        </mxCell>
        <mxCell id="3J7ZXyAR9tnkBYV8iA2I-9" value="" style="endArrow=none;html=1;rounded=0;strokeWidth=3;fillColor=#f8cecc;strokeColor=#b85450;" edge="1" parent="1">
          <mxGeometry width="50" height="50" relative="1" as="geometry">
            <mxPoint x="680" y="360" as="sourcePoint" />
            <mxPoint x="760" y="360" as="targetPoint" />
          </mxGeometry>
        </mxCell>
        <mxCell id="3J7ZXyAR9tnkBYV8iA2I-10" value="" style="endArrow=none;html=1;rounded=0;strokeWidth=3;fillColor=#f8cecc;strokeColor=#b85450;" edge="1" parent="1">
          <mxGeometry width="50" height="50" relative="1" as="geometry">
            <mxPoint x="120" y="360" as="sourcePoint" />
            <mxPoint x="120" y="560" as="targetPoint" />
          </mxGeometry>
        </mxCell>
        <mxCell id="3J7ZXyAR9tnkBYV8iA2I-11" value="" style="endArrow=none;html=1;rounded=0;strokeWidth=3;fillColor=#f8cecc;strokeColor=#b85450;" edge="1" parent="1">
          <mxGeometry width="50" height="50" relative="1" as="geometry">
            <mxPoint x="200" y="360" as="sourcePoint" />
            <mxPoint x="200" y="560" as="targetPoint" />
          </mxGeometry>
        </mxCell>
        <mxCell id="3J7ZXyAR9tnkBYV8iA2I-12" value="" style="endArrow=none;html=1;rounded=0;strokeWidth=3;fillColor=#f8cecc;strokeColor=#b85450;" edge="1" parent="1">
          <mxGeometry width="50" height="50" relative="1" as="geometry">
            <mxPoint x="280" y="360" as="sourcePoint" />
            <mxPoint x="280" y="560" as="targetPoint" />
          </mxGeometry>
        </mxCell>
        <mxCell id="3J7ZXyAR9tnkBYV8iA2I-13" value="" style="endArrow=none;html=1;rounded=0;strokeWidth=3;fillColor=#f8cecc;strokeColor=#b85450;" edge="1" parent="1">
          <mxGeometry width="50" height="50" relative="1" as="geometry">
            <mxPoint x="360" y="360" as="sourcePoint" />
            <mxPoint x="360" y="560" as="targetPoint" />
          </mxGeometry>
        </mxCell>
        <mxCell id="3J7ZXyAR9tnkBYV8iA2I-14" value="" style="endArrow=none;html=1;rounded=0;strokeWidth=3;fillColor=#f8cecc;strokeColor=#b85450;" edge="1" parent="1">
          <mxGeometry width="50" height="50" relative="1" as="geometry">
            <mxPoint x="440" y="360" as="sourcePoint" />
            <mxPoint x="440" y="560" as="targetPoint" />
          </mxGeometry>
        </mxCell>
        <mxCell id="3J7ZXyAR9tnkBYV8iA2I-15" value="" style="endArrow=none;html=1;rounded=0;strokeWidth=3;fillColor=#f8cecc;strokeColor=#b85450;" edge="1" parent="1">
          <mxGeometry width="50" height="50" relative="1" as="geometry">
            <mxPoint x="520" y="360" as="sourcePoint" />
            <mxPoint x="520" y="560" as="targetPoint" />
          </mxGeometry>
        </mxCell>
        <mxCell id="3J7ZXyAR9tnkBYV8iA2I-16" value="" style="endArrow=none;html=1;rounded=0;strokeWidth=3;fillColor=#f8cecc;strokeColor=#b85450;" edge="1" parent="1">
          <mxGeometry width="50" height="50" relative="1" as="geometry">
            <mxPoint x="600" y="360" as="sourcePoint" />
            <mxPoint x="600" y="560" as="targetPoint" />
          </mxGeometry>
        </mxCell>
        <mxCell id="3J7ZXyAR9tnkBYV8iA2I-17" value="" style="endArrow=none;html=1;rounded=0;strokeWidth=3;fillColor=#f8cecc;strokeColor=#b85450;" edge="1" parent="1">
          <mxGeometry width="50" height="50" relative="1" as="geometry">
            <mxPoint x="680" y="360" as="sourcePoint" />
            <mxPoint x="680" y="560" as="targetPoint" />
          </mxGeometry>
        </mxCell>
        <mxCell id="3J7ZXyAR9tnkBYV8iA2I-18" value="" style="endArrow=none;html=1;rounded=0;strokeWidth=3;fillColor=#f8cecc;strokeColor=#b85450;" edge="1" parent="1">
          <mxGeometry width="50" height="50" relative="1" as="geometry">
            <mxPoint x="760" y="360" as="sourcePoint" />
            <mxPoint x="760" y="560" as="targetPoint" />
          </mxGeometry>
        </mxCell>
        <mxCell id="3J7ZXyAR9tnkBYV8iA2I-19" value="" style="endArrow=none;html=1;rounded=0;strokeWidth=3;fillColor=#f8cecc;strokeColor=#b85450;" edge="1" parent="1">
          <mxGeometry width="50" height="50" relative="1" as="geometry">
            <mxPoint x="120" y="560" as="sourcePoint" />
            <mxPoint x="200" y="560" as="targetPoint" />
          </mxGeometry>
        </mxCell>
        <mxCell id="3J7ZXyAR9tnkBYV8iA2I-20" value="" style="endArrow=none;html=1;rounded=0;strokeWidth=3;fillColor=#f8cecc;strokeColor=#b85450;" edge="1" parent="1">
          <mxGeometry width="50" height="50" relative="1" as="geometry">
            <mxPoint x="280" y="560" as="sourcePoint" />
            <mxPoint x="360" y="560" as="targetPoint" />
          </mxGeometry>
        </mxCell>
        <mxCell id="3J7ZXyAR9tnkBYV8iA2I-21" value="" style="endArrow=none;html=1;rounded=0;strokeWidth=3;fillColor=#f8cecc;strokeColor=#b85450;" edge="1" parent="1">
          <mxGeometry width="50" height="50" relative="1" as="geometry">
            <mxPoint x="438" y="560" as="sourcePoint" />
            <mxPoint x="518" y="560" as="targetPoint" />
          </mxGeometry>
        </mxCell>
        <mxCell id="3J7ZXyAR9tnkBYV8iA2I-22" value="" style="endArrow=none;html=1;rounded=0;strokeWidth=3;fillColor=#f8cecc;strokeColor=#b85450;" edge="1" parent="1">
          <mxGeometry width="50" height="50" relative="1" as="geometry">
            <mxPoint x="598" y="560" as="sourcePoint" />
            <mxPoint x="678" y="560" as="targetPoint" />
          </mxGeometry>
        </mxCell>
        <mxCell id="3J7ZXyAR9tnkBYV8iA2I-23" value="" style="endArrow=none;html=1;rounded=0;strokeWidth=3;fillColor=#f8cecc;strokeColor=#b85450;" edge="1" parent="1">
          <mxGeometry width="50" height="50" relative="1" as="geometry">
            <mxPoint x="759" y="560" as="sourcePoint" />
            <mxPoint x="839" y="560" as="targetPoint" />
          </mxGeometry>
        </mxCell>
        <mxCell id="3J7ZXyAR9tnkBYV8iA2I-25" value="" style="endArrow=none;html=1;rounded=0;strokeWidth=3;fillColor=#e3c800;strokeColor=#B09500;" edge="1" parent="1">
          <mxGeometry width="50" height="50" relative="1" as="geometry">
            <mxPoint x="107" y="574" as="sourcePoint" />
            <mxPoint x="133" y="547" as="targetPoint" />
          </mxGeometry>
        </mxCell>
        <mxCell id="3J7ZXyAR9tnkBYV8iA2I-26" value="" style="endArrow=none;html=1;rounded=0;strokeWidth=3;fillColor=#e3c800;strokeColor=#B09500;" edge="1" parent="1">
          <mxGeometry width="50" height="50" relative="1" as="geometry">
            <mxPoint x="266" y="575" as="sourcePoint" />
            <mxPoint x="292" y="548" as="targetPoint" />
          </mxGeometry>
        </mxCell>
        <mxCell id="3J7ZXyAR9tnkBYV8iA2I-27" value="" style="endArrow=none;html=1;rounded=0;strokeWidth=3;fillColor=#e3c800;strokeColor=#B09500;" edge="1" parent="1">
          <mxGeometry width="50" height="50" relative="1" as="geometry">
            <mxPoint x="346" y="576" as="sourcePoint" />
            <mxPoint x="372" y="549" as="targetPoint" />
          </mxGeometry>
        </mxCell>
        <mxCell id="3J7ZXyAR9tnkBYV8iA2I-28" value="" style="endArrow=none;html=1;rounded=0;strokeWidth=3;fillColor=#e3c800;strokeColor=#B09500;" edge="1" parent="1">
          <mxGeometry width="50" height="50" relative="1" as="geometry">
            <mxPoint x="427" y="575" as="sourcePoint" />
            <mxPoint x="453" y="548" as="targetPoint" />
          </mxGeometry>
        </mxCell>
        <mxCell id="3J7ZXyAR9tnkBYV8iA2I-29" value="" style="endArrow=none;html=1;rounded=0;strokeWidth=3;fillColor=#e3c800;strokeColor=#B09500;" edge="1" parent="1">
          <mxGeometry width="50" height="50" relative="1" as="geometry">
            <mxPoint x="507" y="575" as="sourcePoint" />
            <mxPoint x="533" y="548" as="targetPoint" />
          </mxGeometry>
        </mxCell>
        <mxCell id="3J7ZXyAR9tnkBYV8iA2I-30" value="" style="endArrow=none;html=1;rounded=0;strokeWidth=3;fillColor=#e3c800;strokeColor=#B09500;" edge="1" parent="1">
          <mxGeometry width="50" height="50" relative="1" as="geometry">
            <mxPoint x="587" y="574" as="sourcePoint" />
            <mxPoint x="613" y="547" as="targetPoint" />
          </mxGeometry>
        </mxCell>
        <mxCell id="3J7ZXyAR9tnkBYV8iA2I-31" value="" style="endArrow=none;html=1;rounded=0;strokeWidth=3;fillColor=#e3c800;strokeColor=#B09500;" edge="1" parent="1">
          <mxGeometry width="50" height="50" relative="1" as="geometry">
            <mxPoint x="667" y="575" as="sourcePoint" />
            <mxPoint x="693" y="548" as="targetPoint" />
          </mxGeometry>
        </mxCell>
        <mxCell id="3J7ZXyAR9tnkBYV8iA2I-32" value="" style="endArrow=none;html=1;rounded=0;strokeWidth=3;fillColor=#e3c800;strokeColor=#B09500;" edge="1" parent="1">
          <mxGeometry width="50" height="50" relative="1" as="geometry">
            <mxPoint x="748" y="576" as="sourcePoint" />
            <mxPoint x="774" y="549" as="targetPoint" />
          </mxGeometry>
        </mxCell>
        <mxCell id="3J7ZXyAR9tnkBYV8iA2I-33" value="" style="endArrow=none;html=1;rounded=0;strokeWidth=3;fillColor=#e3c800;strokeColor=#B09500;" edge="1" parent="1">
          <mxGeometry width="50" height="50" relative="1" as="geometry">
            <mxPoint x="186" y="574" as="sourcePoint" />
            <mxPoint x="212" y="547" as="targetPoint" />
          </mxGeometry>
        </mxCell>
        <mxCell id="3J7ZXyAR9tnkBYV8iA2I-34" value="" style="endArrow=classic;html=1;rounded=0;strokeWidth=3;fillColor=#e3c800;strokeColor=#B09500;startArrow=none;startFill=0;endFill=1;" edge="1" parent="1">
          <mxGeometry width="50" height="50" relative="1" as="geometry">
            <mxPoint x="70" y="627" as="sourcePoint" />
            <mxPoint x="99.47368421052624" y="585" as="targetPoint" />
          </mxGeometry>
        </mxCell>
        <mxCell id="3J7ZXyAR9tnkBYV8iA2I-36" value="0 mbit" style="text;html=1;strokeColor=none;fillColor=none;align=center;verticalAlign=middle;whiteSpace=wrap;rounded=0;strokeWidth=7;fontSize=16;fontStyle=1" vertex="1" parent="1">
          <mxGeometry x="-60" y="540" width="120" height="30" as="geometry" />
        </mxCell>
        <mxCell id="3J7ZXyAR9tnkBYV8iA2I-38" value="1 SEGUNDO" style="text;html=1;strokeColor=none;fillColor=none;align=center;verticalAlign=middle;whiteSpace=wrap;rounded=0;strokeWidth=7;fontSize=16;fontStyle=1" vertex="1" parent="1">
          <mxGeometry x="364" y="250" width="120" height="30" as="geometry" />
        </mxCell>
        <mxCell id="3J7ZXyAR9tnkBYV8iA2I-39" value="100 mbit" style="text;html=1;strokeColor=none;fillColor=none;align=center;verticalAlign=middle;whiteSpace=wrap;rounded=0;strokeWidth=7;fontSize=16;fontStyle=1" vertex="1" parent="1">
          <mxGeometry x="-60" y="360" width="120" height="30" as="geometry" />
        </mxCell>
        <mxCell id="3J7ZXyAR9tnkBYV8iA2I-40" value="&lt;div&gt;Sem Tokens&lt;/div&gt;&lt;div&gt;Descarte o trÃ¡fego&lt;br&gt;&lt;/div&gt;" style="text;html=1;strokeColor=none;fillColor=none;align=center;verticalAlign=middle;whiteSpace=wrap;rounded=0;strokeWidth=7;fontSize=16;fontStyle=1" vertex="1" parent="1">
          <mxGeometry x="-10" y="640" width="150" height="30" as="geometry" />
        </mxCell>
        <mxCell id="3J7ZXyAR9tnkBYV8iA2I-41" value="" style="endArrow=classic;html=1;rounded=0;strokeWidth=3;fillColor=#e3c800;strokeColor=#B09500;startArrow=none;startFill=0;endFill=1;" edge="1" parent="1">
          <mxGeometry width="50" height="50" relative="1" as="geometry">
            <mxPoint x="230.53" y="630" as="sourcePoint" />
            <mxPoint x="190.00368421052625" y="585" as="targetPoint" />
          </mxGeometry>
        </mxCell>
        <mxCell id="3J7ZXyAR9tnkBYV8iA2I-42" value="&lt;div&gt;RenovaÃ§Ã£o de TC +&lt;/div&gt;&lt;div&gt;Tokens BC&lt;br&gt;&lt;/div&gt;" style="text;html=1;strokeColor=none;fillColor=none;align=center;verticalAlign=middle;whiteSpace=wrap;rounded=0;strokeWidth=7;fontSize=16;fontStyle=1" vertex="1" parent="1">
          <mxGeometry x="150" y="650" width="150" height="30" as="geometry" />
        </mxCell>
        <mxCell id="3J7ZXyAR9tnkBYV8iA2I-43" value=". . . .&amp;nbsp; " style="text;html=1;strokeColor=none;fillColor=none;align=center;verticalAlign=middle;whiteSpace=wrap;rounded=0;strokeWidth=7;fontSize=27;fontStyle=1" vertex="1" parent="1">
          <mxGeometry x="339" y="620" width="150" height="30" as="geometry" />
        </mxCell>
        <mxCell id="3J7ZXyAR9tnkBYV8iA2I-44" value="SERIALIZAÃÃO DO TRÃFEGO RED" style="text;html=1;strokeColor=none;fillColor=none;align=center;verticalAlign=middle;whiteSpace=wrap;rounded=0;strokeWidth=7;fontSize=16;fontStyle=1;fontColor=#FF0000;" vertex="1" parent="1">
          <mxGeometry x="560" y="585" width="290" height="30" as="geometry" />
        </mxCell>
      </root>
    </mxGraphModel>
  </diagram>
</mxfile>
